<?xml version="1.0" encoding="UTF-8" standalone="no"?>
<!DOCTYPE svg PUBLIC "-//W3C//DTD SVG 1.1//EN" "http://www.w3.org/Graphics/SVG/1.1/DTD/svg11.dtd">
<svg width="100%" height="100%" viewBox="0 0 24 24" version="1.1" xmlns="http://www.w3.org/2000/svg" xmlns:xlink="http://www.w3.org/1999/xlink" xml:space="preserve" xmlns:serif="http://www.serif.com/" style="fill-rule:evenodd;clip-rule:evenodd;stroke-linejoin:round;stroke-miterlimit:2;">
    <g transform="matrix(0.85,0,0,0.85,0.764724,2.49651)">
        <path d="M19.5,10.924L19.5,16.885C19.07,16.885 18.703,17.037 18.399,17.341C18.095,17.646 17.942,18.013 17.942,18.442C17.942,18.872 18.095,19.239 18.399,19.543C18.703,19.848 19.07,20 19.5,20L19.5,21.5L7.558,21.5C6.713,21.5 5.992,21.202 5.395,20.605C4.798,20.008 4.5,19.287 4.5,18.442L4.5,5.75C4.5,4.847 4.816,4.08 5.448,3.448C6.08,2.816 6.847,2.5 7.75,2.5L11.547,2.5C11.328,2.971 11.166,3.474 11.07,4L9.692,4L9.692,15.385L18,15.385L18,11.31C18.523,11.244 19.026,11.112 19.5,10.924ZM7.558,20L16.902,20C16.757,19.773 16.644,19.532 16.563,19.278C16.483,19.023 16.442,18.745 16.442,18.442C16.442,18.156 16.48,17.882 16.556,17.619C16.631,17.356 16.747,17.112 16.902,16.885L7.558,16.885C7.112,16.885 6.74,17.037 6.444,17.341C6.148,17.646 6,18.013 6,18.442C6,18.888 6.148,19.26 6.444,19.556C6.74,19.852 7.112,20 7.558,20ZM6,15.844C6.227,15.689 6.47,15.574 6.73,15.498C6.989,15.422 7.265,15.385 7.558,15.385L8.192,15.385L8.192,4L7.75,4C7.269,4 6.857,4.171 6.514,4.514C6.171,4.857 6,5.269 6,5.75L6,15.844Z"/>
    </g>
    <g transform="matrix(0.491653,0,0,0.491653,10.4731,1.89562)">
        <g id="radio_button_unchecked_FILL0_wght700_GRAD200_opsz20.svg">
            <g>
                <path d="M10.006,18.958C8.771,18.958 7.606,18.728 6.511,18.269C5.416,17.809 4.461,17.171 3.645,16.355C2.829,15.539 2.191,14.584 1.731,13.49C1.272,12.396 1.042,11.229 1.042,9.99C1.042,8.748 1.272,7.585 1.733,6.501C2.193,5.417 2.833,4.466 3.653,3.648C4.472,2.83 5.428,2.191 6.518,1.731C7.609,1.272 8.773,1.042 10.01,1.042C11.252,1.042 12.415,1.271 13.5,1.731C14.584,2.191 15.535,2.829 16.353,3.647C17.171,4.465 17.809,5.418 18.269,6.506C18.729,7.594 18.958,8.757 18.958,9.996C18.958,11.235 18.728,12.398 18.269,13.486C17.809,14.574 17.17,15.528 16.352,16.347C15.534,17.167 14.581,17.807 13.494,18.267C12.407,18.728 11.244,18.958 10.006,18.958ZM9.995,16.292C11.756,16.292 13.245,15.684 14.464,14.468C15.682,13.253 16.292,11.765 16.292,10.005C16.292,8.244 15.684,6.755 14.468,5.536C13.253,4.318 11.765,3.708 10.005,3.708C8.244,3.708 6.755,4.316 5.536,5.532C4.318,6.747 3.708,8.235 3.708,9.995C3.708,11.756 4.316,13.245 5.532,14.464C6.747,15.682 8.235,16.292 9.995,16.292Z" style="fill-rule:nonzero;"/>
            </g>
        </g>
    </g>
</svg>
